<svg fill="none" height="32" viewBox="0 0 32 32" width="32" xmlns="http://www.w3.org/2000/svg"><g fill="#212121"><path d="m15.3429 16.6897c.368-.3862.368-.9932 0-1.3794l-5.86885-6.16077c-.6226-.65356-1.72405-.2129-1.72405.68975v12.32142c0 .9027 1.10145 1.3433 1.72405.6898z"/><path d="m17 9.5c0-.27614.2239-.5.5-.5h2c.2761 0 .5.22386.5.5v13c0 .2761-.2239.5-.5.5h-2c-.2761 0-.5-.2239-.5-.5z"/><path d="m21.5 9c-.2761 0-.5.22386-.5.5v13c0 .2761.2239.5.5.5h2c.2761 0 .5-.2239.5-.5v-13c0-.27614-.2239-.5-.5-.5z"/><path d="m6 1c-2.76142 0-5 2.23858-5 5v20c0 2.7614 2.23858 5 5 5h20c2.7614 0 5-2.2386 5-5v-20c0-2.76142-2.2386-5-5-5zm-3 5c0-1.65685 1.34315-3 3-3h20c1.6569 0 3 1.34315 3 3v20c0 1.6569-1.3431 3-3 3h-20c-1.65685 0-3-1.3431-3-3z"/></g></svg>